<?xml version="1.0" encoding="UTF-8" standalone="no"?>
<!DOCTYPE svg PUBLIC "-//W3C//DTD SVG 1.1//EN"
 "http://www.w3.org/Graphics/SVG/1.1/DTD/svg11.dtd">
<!-- Generated by graphviz version 14.1.2 (20260126.1125)
 -->
<!-- Pages: 1 -->
<svg width="1486pt" height="1140pt"
 viewBox="0.00 0.00 1486.00 1140.00" xmlns="http://www.w3.org/2000/svg" xmlns:xlink="http://www.w3.org/1999/xlink">
<g id="graph0" class="graph" transform="scale(1 1) rotate(0) translate(4 1136)">
<polygon fill="white" stroke="none" points="-4,4 -4,-1136 1481.59,-1136 1481.59,4 -4,4"/>
<!-- mysql -->
<g id="node1" class="node">
<title>mysql</title>
<g id="a_node1"><a xlink:href="https://github.com/conda-forge/mysql-feedstock/pull/124" xlink:title="mysql ✓">
<ellipse fill="#31688e" stroke="black" cx="864.97" cy="-1114" rx="49.1" ry="18"/>
<text xml:space="preserve" text-anchor="middle" x="864.97" y="-1109.33" font-family="Times,serif" font-size="14.00" fill="white">mysql ✓</text>
</a>
</g>
</g>
<!-- qgis -->
<g id="node2" class="node">
<title>qgis</title>
<g id="a_node2"><a xlink:href="https://github.com/conda-forge/qgis-feedstock/pull/601" xlink:title="qgis ❎">
<ellipse fill="#31688e" stroke="black" cx="864.97" cy="-1042" rx="47.53" ry="18"/>
<text xml:space="preserve" text-anchor="middle" x="864.97" y="-1037.33" font-family="Times,serif" font-size="14.00" fill="white">qgis ❎</text>
</a>
</g>
</g>
<!-- mysql&#45;&gt;qgis -->
<!-- go&#45;cockroach -->
<g id="node3" class="node">
<title>go&#45;cockroach</title>
<g id="a_node3"><a xlink:href="https://github.com/conda-forge/go-cockroach-feedstock/pull/42" xlink:title="go cockroach ❎">
<ellipse fill="#31688e" stroke="black" cx="864.97" cy="-970" rx="91.72" ry="18"/>
<text xml:space="preserve" text-anchor="middle" x="864.97" y="-965.33" font-family="Times,serif" font-size="14.00" fill="white">go cockroach ❎</text>
</a>
</g>
</g>
<!-- qgis&#45;&gt;go&#45;cockroach -->
<!-- protozfits -->
<g id="node18" class="node">
<title>protozfits</title>
<g id="a_node18"><a xlink:href="https://github.com/conda-forge/protozfits-feedstock/pull/67" xlink:title="protozfits ✓">
<ellipse fill="#31688e" stroke="black" cx="864.97" cy="-898" rx="66.99" ry="18"/>
<text xml:space="preserve" text-anchor="middle" x="864.97" y="-893.33" font-family="Times,serif" font-size="14.00" fill="white">protozfits ✓</text>
</a>
</g>
</g>
<!-- go&#45;cockroach&#45;&gt;protozfits -->
<!-- tensorflow -->
<g id="node4" class="node">
<title>tensorflow</title>
<g id="a_node4"><a xlink:href="https://github.com/conda-forge/tensorflow-feedstock/pull/494" xlink:title="tensorflow ❎">
<ellipse fill="#31688e" stroke="black" cx="1242.97" cy="-314" rx="79.09" ry="18"/>
<text xml:space="preserve" text-anchor="middle" x="1242.97" y="-309.32" font-family="Times,serif" font-size="14.00" fill="white">tensorflow ❎</text>
</a>
</g>
</g>
<!-- deepmd&#45;kit -->
<g id="node5" class="node">
<title>deepmd&#45;kit</title>
<g id="a_node5"><a xlink:href="https://github.com/conda-forge/deepmd-kit-feedstock" xlink:title="deepmd kit">
<ellipse fill="#fde725" stroke="black" cx="1194.97" cy="-242" rx="67.52" ry="18"/>
<text xml:space="preserve" text-anchor="middle" x="1194.97" y="-237.32" font-family="Times,serif" font-size="14.00">deepmd kit</text>
</a>
</g>
</g>
<!-- tensorflow&#45;&gt;deepmd&#45;kit -->
<g id="edge3" class="edge">
<title>tensorflow&#45;&gt;deepmd&#45;kit</title>
<path fill="none" stroke="black" d="M1231.35,-296.05C1225.81,-287.97 1219.05,-278.12 1212.87,-269.11"/>
<polygon fill="black" stroke="black" points="1215.88,-267.31 1207.34,-261.04 1210.11,-271.26 1215.88,-267.31"/>
</g>
<!-- horovod -->
<g id="node6" class="node">
<title>horovod</title>
<g id="a_node6"><a xlink:href="https://github.com/conda-forge/horovod-feedstock" xlink:title="horovod">
<ellipse fill="#fde725" stroke="black" cx="1290.97" cy="-170" rx="51.74" ry="18"/>
<text xml:space="preserve" text-anchor="middle" x="1290.97" y="-165.32" font-family="Times,serif" font-size="14.00">horovod</text>
</a>
</g>
</g>
<!-- tensorflow&#45;&gt;horovod -->
<g id="edge4" class="edge">
<title>tensorflow&#45;&gt;horovod</title>
<path fill="none" stroke="black" d="M1253.96,-295.94C1260.05,-285.84 1267.3,-272.59 1271.97,-260 1279.21,-240.5 1284.02,-217.53 1287,-199.8"/>
<polygon fill="black" stroke="black" points="1290.45,-200.4 1288.53,-189.98 1283.53,-199.32 1290.45,-200.4"/>
</g>
<!-- jaxlib -->
<g id="node7" class="node">
<title>jaxlib</title>
<g id="a_node7"><a xlink:href="https://github.com/conda-forge/jaxlib-feedstock/pull/349" xlink:title="jaxlib ❎">
<ellipse fill="#31688e" stroke="black" cx="470.97" cy="-314" rx="53.84" ry="18"/>
<text xml:space="preserve" text-anchor="middle" x="470.97" y="-309.32" font-family="Times,serif" font-size="14.00" fill="white">jaxlib ❎</text>
</a>
</g>
</g>
<!-- ray&#45;packages -->
<g id="node8" class="node">
<title>ray&#45;packages</title>
<g id="a_node8"><a xlink:href="https://github.com/conda-forge/ray-packages-feedstock" xlink:title="ray packages">
<ellipse fill="#fde725" stroke="black" cx="389.97" cy="-170" rx="76.99" ry="18"/>
<text xml:space="preserve" text-anchor="middle" x="389.97" y="-165.32" font-family="Times,serif" font-size="14.00">ray packages</text>
</a>
</g>
</g>
<!-- jaxlib&#45;&gt;ray&#45;packages -->
<g id="edge5" class="edge">
<title>jaxlib&#45;&gt;ray&#45;packages</title>
<path fill="none" stroke="black" d="M461.2,-295.87C447.33,-271.56 421.81,-226.82 405.38,-198.01"/>
<polygon fill="black" stroke="black" points="408.52,-196.46 400.52,-189.5 402.44,-199.92 408.52,-196.46"/>
</g>
<!-- mujoco -->
<g id="node9" class="node">
<title>mujoco</title>
<g id="a_node9"><a xlink:href="https://github.com/conda-forge/mujoco-feedstock" xlink:title="mujoco">
<ellipse fill="#fde725" stroke="black" cx="508.97" cy="-242" rx="47" ry="18"/>
<text xml:space="preserve" text-anchor="middle" x="508.97" y="-237.32" font-family="Times,serif" font-size="14.00">mujoco</text>
</a>
</g>
</g>
<!-- jaxlib&#45;&gt;mujoco -->
<g id="edge6" class="edge">
<title>jaxlib&#45;&gt;mujoco</title>
<path fill="none" stroke="black" d="M480.17,-296.05C484.46,-288.14 489.68,-278.54 494.48,-269.69"/>
<polygon fill="black" stroke="black" points="497.44,-271.58 499.13,-261.12 491.29,-268.24 497.44,-271.58"/>
</g>
<!-- mujoco&#45;&gt;ray&#45;packages -->
<g id="edge7" class="edge">
<title>mujoco&#45;&gt;ray&#45;packages</title>
<path fill="none" stroke="black" d="M484.02,-226.33C467.58,-216.65 445.74,-203.81 427.25,-192.93"/>
<polygon fill="black" stroke="black" points="429.07,-189.94 418.68,-187.89 425.52,-195.97 429.07,-189.94"/>
</g>
<!-- libignition&#45;transport4 -->
<g id="node10" class="node">
<title>libignition&#45;transport4</title>
<g id="a_node10"><a xlink:href="https://github.com/conda-forge/libignition-transport4-feedstock/pull/113" xlink:title="libignition transport4 ❎">
<ellipse fill="#31688e" stroke="black" cx="561.97" cy="-862" rx="134.33" ry="18"/>
<text xml:space="preserve" text-anchor="middle" x="561.97" y="-857.33" font-family="Times,serif" font-size="14.00" fill="white">libignition transport4 ❎</text>
</a>
</g>
</g>
<!-- libignition&#45;sensors -->
<g id="node11" class="node">
<title>libignition&#45;sensors</title>
<g id="a_node11"><a xlink:href="https://github.com/conda-forge/libignition-sensors-feedstock" xlink:title="libignition sensors">
<ellipse fill="#fde725" stroke="black" cx="375.97" cy="-790" rx="103.82" ry="18"/>
<text xml:space="preserve" text-anchor="middle" x="375.97" y="-785.33" font-family="Times,serif" font-size="14.00">libignition sensors</text>
</a>
</g>
</g>
<!-- libignition&#45;transport4&#45;&gt;libignition&#45;sensors -->
<g id="edge8" class="edge">
<title>libignition&#45;transport4&#45;&gt;libignition&#45;sensors</title>
<path fill="none" stroke="black" d="M518.36,-844.59C491.51,-834.48 456.92,-821.47 428.56,-810.79"/>
<polygon fill="black" stroke="black" points="430.03,-807.61 419.44,-807.36 427.57,-814.16 430.03,-807.61"/>
</g>
<!-- libignition&#45;gui -->
<g id="node12" class="node">
<title>libignition&#45;gui</title>
<g id="a_node12"><a xlink:href="https://github.com/conda-forge/libignition-gui-feedstock" xlink:title="libignition gui">
<ellipse fill="#fde725" stroke="black" cx="616.97" cy="-790" rx="81.2" ry="18"/>
<text xml:space="preserve" text-anchor="middle" x="616.97" y="-785.33" font-family="Times,serif" font-size="14.00">libignition gui</text>
</a>
</g>
</g>
<!-- libignition&#45;transport4&#45;&gt;libignition&#45;gui -->
<g id="edge9" class="edge">
<title>libignition&#45;transport4&#45;&gt;libignition&#45;gui</title>
<path fill="none" stroke="black" d="M575.56,-843.7C581.89,-835.64 589.55,-825.89 596.55,-816.98"/>
<polygon fill="black" stroke="black" points="599.17,-819.32 602.59,-809.29 593.66,-815 599.17,-819.32"/>
</g>
<!-- libignition&#45;gazebo -->
<g id="node13" class="node">
<title>libignition&#45;gazebo</title>
<g id="a_node13"><a xlink:href="https://github.com/conda-forge/libignition-gazebo-feedstock" xlink:title="libignition gazebo">
<ellipse fill="#fde725" stroke="black" cx="497.97" cy="-718" rx="100.66" ry="18"/>
<text xml:space="preserve" text-anchor="middle" x="497.97" y="-713.33" font-family="Times,serif" font-size="14.00">libignition gazebo</text>
</a>
</g>
</g>
<!-- libignition&#45;transport4&#45;&gt;libignition&#45;gazebo -->
<g id="edge10" class="edge">
<title>libignition&#45;transport4&#45;&gt;libignition&#45;gazebo</title>
<path fill="none" stroke="black" d="M549.07,-844.03C541.85,-833.96 533.1,-820.71 526.97,-808 517.53,-788.43 510.04,-765.02 505.04,-747.13"/>
<polygon fill="black" stroke="black" points="508.48,-746.47 502.51,-737.72 501.72,-748.28 508.48,-746.47"/>
</g>
<!-- libignition&#45;launch -->
<g id="node14" class="node">
<title>libignition&#45;launch</title>
<g id="a_node14"><a xlink:href="https://github.com/conda-forge/libignition-launch-feedstock" xlink:title="libignition launch">
<ellipse fill="#fde725" stroke="black" cx="626.97" cy="-646" rx="98.56" ry="18"/>
<text xml:space="preserve" text-anchor="middle" x="626.97" y="-641.33" font-family="Times,serif" font-size="14.00">libignition launch</text>
</a>
</g>
</g>
<!-- libignition&#45;transport4&#45;&gt;libignition&#45;launch -->
<g id="edge11" class="edge">
<title>libignition&#45;transport4&#45;&gt;libignition&#45;launch</title>
<path fill="none" stroke="black" d="M648.75,-847.85C671.37,-840.05 693.22,-827.66 706.97,-808 738.29,-763.2 689.3,-704.33 655.24,-671.62"/>
<polygon fill="black" stroke="black" points="657.76,-669.19 648.06,-664.93 652.98,-674.31 657.76,-669.19"/>
</g>
<!-- libignition&#45;sensors&#45;&gt;libignition&#45;gazebo -->
<g id="edge12" class="edge">
<title>libignition&#45;sensors&#45;&gt;libignition&#45;gazebo</title>
<path fill="none" stroke="black" d="M404.88,-772.41C421.02,-763.15 441.35,-751.49 458.89,-741.42"/>
<polygon fill="black" stroke="black" points="460.6,-744.48 467.53,-736.47 457.11,-738.41 460.6,-744.48"/>
</g>
<!-- libignition&#45;gui&#45;&gt;libignition&#45;gazebo -->
<g id="edge13" class="edge">
<title>libignition&#45;gui&#45;&gt;libignition&#45;gazebo</title>
<path fill="none" stroke="black" d="M589.37,-772.76C573.53,-763.45 553.4,-751.61 536.07,-741.41"/>
<polygon fill="black" stroke="black" points="537.94,-738.45 527.55,-736.4 534.39,-744.49 537.94,-738.45"/>
</g>
<!-- libignition&#45;gui&#45;&gt;libignition&#45;launch -->
<g id="edge14" class="edge">
<title>libignition&#45;gui&#45;&gt;libignition&#45;launch</title>
<path fill="none" stroke="black" d="M618.19,-771.59C619.88,-747.61 622.94,-704.14 624.97,-675.42"/>
<polygon fill="black" stroke="black" points="628.45,-675.84 625.66,-665.62 621.46,-675.35 628.45,-675.84"/>
</g>
<!-- libignition&#45;gazebo&#45;&gt;libignition&#45;launch -->
<g id="edge15" class="edge">
<title>libignition&#45;gazebo&#45;&gt;libignition&#45;launch</title>
<path fill="none" stroke="black" d="M528.54,-700.41C545.89,-691 567.82,-679.1 586.57,-668.92"/>
<polygon fill="black" stroke="black" points="588.17,-672.04 595.29,-664.19 584.83,-665.89 588.17,-672.04"/>
</g>
<!-- gazebo -->
<g id="node15" class="node">
<title>gazebo</title>
<g id="a_node15"><a xlink:href="https://github.com/conda-forge/gazebo-feedstock/pull/267" xlink:title="gazebo ❎">
<ellipse fill="#31688e" stroke="black" cx="368.97" cy="-90" rx="61.73" ry="18"/>
<text xml:space="preserve" text-anchor="middle" x="368.97" y="-85.33" font-family="Times,serif" font-size="14.00" fill="white">gazebo ❎</text>
</a>
</g>
</g>
<!-- gazebo&#45;yarp&#45;plugins -->
<g id="node16" class="node">
<title>gazebo&#45;yarp&#45;plugins</title>
<g id="a_node16"><a xlink:href="https://github.com/conda-forge/gazebo-yarp-plugins-feedstock" xlink:title="gazebo yarp plugins">
<ellipse fill="#fde725" stroke="black" cx="368.97" cy="-18" rx="112.24" ry="18"/>
<text xml:space="preserve" text-anchor="middle" x="368.97" y="-13.32" font-family="Times,serif" font-size="14.00">gazebo yarp plugins</text>
</a>
</g>
</g>
<!-- gazebo&#45;&gt;gazebo&#45;yarp&#45;plugins -->
<g id="edge16" class="edge">
<title>gazebo&#45;&gt;gazebo&#45;yarp&#45;plugins</title>
<path fill="none" stroke="black" d="M368.97,-71.7C368.97,-64.41 368.97,-55.73 368.97,-47.54"/>
<polygon fill="black" stroke="black" points="372.47,-47.62 368.97,-37.62 365.47,-47.62 372.47,-47.62"/>
</g>
<!-- libignition&#45;fuel&#45;tools -->
<g id="node17" class="node">
<title>libignition&#45;fuel&#45;tools</title>
<g id="a_node17"><a xlink:href="https://github.com/conda-forge/libignition-fuel-tools-feedstock/pull/111" xlink:title="libignition fuel tools ❎">
<ellipse fill="#31688e" stroke="black" cx="126.97" cy="-790" rx="126.97" ry="18"/>
<text xml:space="preserve" text-anchor="middle" x="126.97" y="-785.33" font-family="Times,serif" font-size="14.00" fill="white">libignition fuel tools ❎</text>
</a>
</g>
</g>
<!-- libignition&#45;fuel&#45;tools&#45;&gt;libignition&#45;gazebo -->
<g id="edge17" class="edge">
<title>libignition&#45;fuel&#45;tools&#45;&gt;libignition&#45;gazebo</title>
<path fill="none" stroke="black" d="M201.15,-775C264.29,-763.09 354.73,-746.03 419.15,-733.87"/>
<polygon fill="black" stroke="black" points="419.8,-737.31 428.98,-732.02 418.5,-730.43 419.8,-737.31"/>
</g>
<!-- or&#45;tools -->
<g id="node24" class="node">
<title>or&#45;tools</title>
<g id="a_node24"><a xlink:href="https://github.com/conda-forge/or-tools-feedstock/pull/70" xlink:title="or tools ❎">
<ellipse fill="#31688e" stroke="black" cx="864.97" cy="-826" rx="64.36" ry="18"/>
<text xml:space="preserve" text-anchor="middle" x="864.97" y="-821.33" font-family="Times,serif" font-size="14.00" fill="white">or tools ❎</text>
</a>
</g>
</g>
<!-- protozfits&#45;&gt;or&#45;tools -->
<!-- s2geometry -->
<g id="node19" class="node">
<title>s2geometry</title>
<g id="a_node19"><a xlink:href="https://github.com/conda-forge/s2geometry-feedstock/pull/39" xlink:title="s2geometry ❎">
<ellipse fill="#31688e" stroke="black" cx="898.97" cy="-350" rx="85.93" ry="18"/>
<text xml:space="preserve" text-anchor="middle" x="898.97" y="-345.32" font-family="Times,serif" font-size="14.00" fill="white">s2geometry ❎</text>
</a>
</g>
</g>
<!-- pys2index -->
<g id="node20" class="node">
<title>pys2index</title>
<g id="a_node20"><a xlink:href="https://github.com/conda-forge/pys2index-feedstock" xlink:title="pys2index">
<ellipse fill="#fde725" stroke="black" cx="808.97" cy="-278" rx="62.26" ry="18"/>
<text xml:space="preserve" text-anchor="middle" x="808.97" y="-273.32" font-family="Times,serif" font-size="14.00">pys2index</text>
</a>
</g>
</g>
<!-- s2geometry&#45;&gt;pys2index -->
<g id="edge19" class="edge">
<title>s2geometry&#45;&gt;pys2index</title>
<path fill="none" stroke="black" d="M877.64,-332.41C866.01,-323.37 851.44,-312.03 838.71,-302.13"/>
<polygon fill="black" stroke="black" points="841.07,-299.53 831.03,-296.16 836.77,-305.06 841.07,-299.53"/>
</g>
<!-- s2geography -->
<g id="node21" class="node">
<title>s2geography</title>
<g id="a_node21"><a xlink:href="https://github.com/conda-forge/s2geography-feedstock" xlink:title="s2geography">
<ellipse fill="#fde725" stroke="black" cx="865.97" cy="-206" rx="75.94" ry="18"/>
<text xml:space="preserve" text-anchor="middle" x="865.97" y="-201.33" font-family="Times,serif" font-size="14.00">s2geography</text>
</a>
</g>
</g>
<!-- s2geometry&#45;&gt;s2geography -->
<g id="edge20" class="edge">
<title>s2geometry&#45;&gt;s2geography</title>
<path fill="none" stroke="black" d="M895.5,-331.55C891.87,-313.57 885.87,-284.74 879.97,-260 878.04,-251.91 875.8,-243.18 873.68,-235.17"/>
<polygon fill="black" stroke="black" points="877.08,-234.35 871.11,-225.6 870.32,-236.16 877.08,-234.35"/>
</g>
<!-- spherely -->
<g id="node22" class="node">
<title>spherely</title>
<g id="a_node22"><a xlink:href="https://github.com/conda-forge/spherely-feedstock" xlink:title="spherely">
<ellipse fill="#fde725" stroke="black" cx="917.97" cy="-134" rx="54.36" ry="18"/>
<text xml:space="preserve" text-anchor="middle" x="917.97" y="-129.32" font-family="Times,serif" font-size="14.00">spherely</text>
</a>
</g>
</g>
<!-- s2geometry&#45;&gt;spherely -->
<g id="edge21" class="edge">
<title>s2geometry&#45;&gt;spherely</title>
<path fill="none" stroke="black" d="M908.66,-331.89C921.33,-308.44 942.87,-264.57 950.97,-224 954.1,-208.31 955.37,-203.38 950.97,-188 948.26,-178.52 943.3,-169.08 938.04,-160.85"/>
<polygon fill="black" stroke="black" points="941.02,-159 932.47,-152.74 935.25,-162.96 941.02,-159"/>
</g>
<!-- s2geography&#45;&gt;spherely -->
<g id="edge22" class="edge">
<title>s2geography&#45;&gt;spherely</title>
<path fill="none" stroke="black" d="M878.56,-188.05C884.62,-179.89 892.03,-169.91 898.78,-160.82"/>
<polygon fill="black" stroke="black" points="901.44,-163.12 904.59,-153 895.82,-158.94 901.44,-163.12"/>
</g>
<!-- dm&#45;tree -->
<g id="node23" class="node">
<title>dm&#45;tree</title>
<g id="a_node23"><a xlink:href="https://github.com/conda-forge/dm-tree-feedstock/pull/50" xlink:title="dm tree ✓">
<ellipse fill="#31688e" stroke="black" cx="346.97" cy="-242" rx="58.57" ry="18"/>
<text xml:space="preserve" text-anchor="middle" x="346.97" y="-237.32" font-family="Times,serif" font-size="14.00" fill="white">dm tree ✓</text>
</a>
</g>
</g>
<!-- dm&#45;tree&#45;&gt;ray&#45;packages -->
<g id="edge23" class="edge">
<title>dm&#45;tree&#45;&gt;ray&#45;packages</title>
<path fill="none" stroke="black" d="M357.38,-224.05C362.17,-216.26 367.96,-206.82 373.33,-198.08"/>
<polygon fill="black" stroke="black" points="376.31,-199.92 378.56,-189.56 370.35,-196.25 376.31,-199.92"/>
</g>
<!-- labmaze -->
<g id="node25" class="node">
<title>labmaze</title>
<g id="a_node25"><a xlink:href="https://github.com/conda-forge/labmaze-feedstock/pull/20" xlink:title="labmaze ❎">
<ellipse fill="#31688e" stroke="black" cx="864.97" cy="-754" rx="68.04" ry="18"/>
<text xml:space="preserve" text-anchor="middle" x="864.97" y="-749.33" font-family="Times,serif" font-size="14.00" fill="white">labmaze ❎</text>
</a>
</g>
</g>
<!-- or&#45;tools&#45;&gt;labmaze -->
<!-- arcticdb -->
<g id="node32" class="node">
<title>arcticdb</title>
<g id="a_node32"><a xlink:href="https://github.com/conda-forge/arcticdb-feedstock/pull/599" xlink:title="arcticdb ❎">
<ellipse fill="#31688e" stroke="black" cx="864.97" cy="-682" rx="67.52" ry="18"/>
<text xml:space="preserve" text-anchor="middle" x="864.97" y="-677.33" font-family="Times,serif" font-size="14.00" fill="white">arcticdb ❎</text>
</a>
</g>
</g>
<!-- labmaze&#45;&gt;arcticdb -->
<!-- gz&#45;fuel&#45;tools -->
<g id="node26" class="node">
<title>gz&#45;fuel&#45;tools</title>
<g id="a_node26"><a xlink:href="https://github.com/conda-forge/gz-fuel-tools-feedstock/pull/75" xlink:title="gz fuel tools ❎">
<ellipse fill="#31688e" stroke="black" cx="1079.97" cy="-862" rx="87.51" ry="18"/>
<text xml:space="preserve" text-anchor="middle" x="1079.97" y="-857.33" font-family="Times,serif" font-size="14.00" fill="white">gz fuel tools ❎</text>
</a>
</g>
</g>
<!-- gz&#45;sim -->
<g id="node27" class="node">
<title>gz&#45;sim</title>
<g id="a_node27"><a xlink:href="https://github.com/conda-forge/gz-sim-feedstock" xlink:title="gz sim">
<ellipse fill="#fde725" stroke="black" cx="1199.97" cy="-790" rx="43.84" ry="18"/>
<text xml:space="preserve" text-anchor="middle" x="1199.97" y="-785.33" font-family="Times,serif" font-size="14.00">gz sim</text>
</a>
</g>
</g>
<!-- gz&#45;fuel&#45;tools&#45;&gt;gz&#45;sim -->
<g id="edge26" class="edge">
<title>gz&#45;fuel&#45;tools&#45;&gt;gz&#45;sim</title>
<path fill="none" stroke="black" d="M1108.1,-844.59C1125.32,-834.54 1147.48,-821.62 1165.72,-810.98"/>
<polygon fill="black" stroke="black" points="1167.48,-814 1174.35,-805.94 1163.95,-807.96 1167.48,-814"/>
</g>
<!-- gz&#45;launch -->
<g id="node28" class="node">
<title>gz&#45;launch</title>
<g id="a_node28"><a xlink:href="https://github.com/conda-forge/gz-launch-feedstock" xlink:title="gz launch">
<ellipse fill="#fde725" stroke="black" cx="1271.97" cy="-718" rx="59.1" ry="18"/>
<text xml:space="preserve" text-anchor="middle" x="1271.97" y="-713.33" font-family="Times,serif" font-size="14.00">gz launch</text>
</a>
</g>
</g>
<!-- gz&#45;fuel&#45;tools&#45;&gt;gz&#45;launch -->
<g id="edge27" class="edge">
<title>gz&#45;fuel&#45;tools&#45;&gt;gz&#45;launch</title>
<path fill="none" stroke="black" d="M1089.2,-843.77C1100.51,-824.08 1121.37,-792 1146.97,-772 1168.05,-755.52 1195.02,-743.24 1218.5,-734.67"/>
<polygon fill="black" stroke="black" points="1219.65,-737.98 1227.93,-731.37 1217.34,-731.37 1219.65,-737.98"/>
</g>
<!-- gz&#45;sim&#45;&gt;gz&#45;launch -->
<g id="edge28" class="edge">
<title>gz&#45;sim&#45;&gt;gz&#45;launch</title>
<path fill="none" stroke="black" d="M1216.31,-773.12C1225.32,-764.36 1236.7,-753.29 1246.82,-743.45"/>
<polygon fill="black" stroke="black" points="1249.13,-746.09 1253.86,-736.61 1244.25,-741.07 1249.13,-746.09"/>
</g>
<!-- gz&#45;sim&#45;yarp&#45;plugins -->
<g id="node29" class="node">
<title>gz&#45;sim&#45;yarp&#45;plugins</title>
<g id="a_node29"><a xlink:href="https://github.com/conda-forge/gz-sim-yarp-plugins-feedstock" xlink:title="gz sim yarp plugins">
<ellipse fill="#fde725" stroke="black" cx="1227.97" cy="-646" rx="109.61" ry="18"/>
<text xml:space="preserve" text-anchor="middle" x="1227.97" y="-641.33" font-family="Times,serif" font-size="14.00">gz sim yarp plugins</text>
</a>
</g>
</g>
<!-- gz&#45;sim&#45;&gt;gz&#45;sim&#45;yarp&#45;plugins -->
<g id="edge29" class="edge">
<title>gz&#45;sim&#45;&gt;gz&#45;sim&#45;yarp&#45;plugins</title>
<path fill="none" stroke="black" d="M1198.83,-771.67C1198.08,-753.54 1198.13,-724.37 1203.97,-700 1206.04,-691.36 1209.52,-682.39 1213.2,-674.35"/>
<polygon fill="black" stroke="black" points="1216.31,-675.95 1217.56,-665.43 1210.03,-672.88 1216.31,-675.95"/>
</g>
<!-- gz&#45;launch&#45;&gt;gz&#45;sim&#45;yarp&#45;plugins -->
<g id="edge30" class="edge">
<title>gz&#45;launch&#45;&gt;gz&#45;sim&#45;yarp&#45;plugins</title>
<path fill="none" stroke="black" d="M1261.32,-700.05C1256.36,-692.18 1250.36,-682.62 1244.81,-673.79"/>
<polygon fill="black" stroke="black" points="1247.92,-672.16 1239.63,-665.56 1241.99,-675.89 1247.92,-672.16"/>
</g>
<!-- gz&#45;gui -->
<g id="node30" class="node">
<title>gz&#45;gui</title>
<g id="a_node30"><a xlink:href="https://github.com/conda-forge/gz-gui-feedstock/pull/82" xlink:title="gz gui ❎">
<ellipse fill="#31688e" stroke="black" cx="1242.97" cy="-862" rx="57" ry="18"/>
<text xml:space="preserve" text-anchor="middle" x="1242.97" y="-857.33" font-family="Times,serif" font-size="14.00" fill="white">gz gui ❎</text>
</a>
</g>
</g>
<!-- gz&#45;gui&#45;&gt;gz&#45;sim -->
<g id="edge31" class="edge">
<title>gz&#45;gui&#45;&gt;gz&#45;sim</title>
<path fill="none" stroke="black" d="M1232.56,-844.05C1227.65,-836.06 1221.67,-826.33 1216.19,-817.4"/>
<polygon fill="black" stroke="black" points="1219.29,-815.77 1211.07,-809.08 1213.33,-819.43 1219.29,-815.77"/>
</g>
<!-- gz&#45;gui&#45;&gt;gz&#45;launch -->
<g id="edge32" class="edge">
<title>gz&#45;gui&#45;&gt;gz&#45;launch</title>
<path fill="none" stroke="black" d="M1246.52,-843.59C1251.44,-819.5 1260.38,-775.75 1266.24,-747.03"/>
<polygon fill="black" stroke="black" points="1269.6,-748.09 1268.17,-737.59 1262.74,-746.69 1269.6,-748.09"/>
</g>
<!-- gz&#45;sensors -->
<g id="node31" class="node">
<title>gz&#45;sensors</title>
<g id="a_node31"><a xlink:href="https://github.com/conda-forge/gz-sensors-feedstock/pull/86" xlink:title="gz sensors ❎">
<ellipse fill="#31688e" stroke="black" cx="1397.97" cy="-862" rx="79.62" ry="18"/>
<text xml:space="preserve" text-anchor="middle" x="1397.97" y="-857.33" font-family="Times,serif" font-size="14.00" fill="white">gz sensors ❎</text>
</a>
</g>
</g>
<!-- gz&#45;sensors&#45;&gt;gz&#45;sim -->
<g id="edge33" class="edge">
<title>gz&#45;sensors&#45;&gt;gz&#45;sim</title>
<path fill="none" stroke="black" d="M1356.46,-846.33C1323.1,-834.53 1276.42,-818.03 1242.73,-806.12"/>
<polygon fill="black" stroke="black" points="1244.31,-802.96 1233.71,-802.93 1241.97,-809.56 1244.31,-802.96"/>
</g>
<!-- gz&#45;sensors&#45;&gt;gz&#45;launch -->
<g id="edge34" class="edge">
<title>gz&#45;sensors&#45;&gt;gz&#45;launch</title>
<path fill="none" stroke="black" d="M1382.77,-843.87C1360.7,-819 1319.66,-772.75 1294.19,-744.05"/>
<polygon fill="black" stroke="black" points="1297.09,-742.04 1287.83,-736.88 1291.85,-746.68 1297.09,-742.04"/>
</g>
<!-- gcld3 -->
<g id="node33" class="node">
<title>gcld3</title>
<g id="a_node33"><a xlink:href="https://github.com/conda-forge/gcld3-feedstock/pull/20" xlink:title="gcld3 ✓">
<ellipse fill="#31688e" stroke="black" cx="864.97" cy="-610" rx="46.47" ry="18"/>
<text xml:space="preserve" text-anchor="middle" x="864.97" y="-605.33" font-family="Times,serif" font-size="14.00" fill="white">gcld3 ✓</text>
</a>
</g>
</g>
<!-- arcticdb&#45;&gt;gcld3 -->
<!-- bfiocpp -->
<g id="node35" class="node">
<title>bfiocpp</title>
<g id="a_node35"><a xlink:href="https://github.com/conda-forge/bfiocpp-feedstock/pull/21" xlink:title="bfiocpp ✓">
<ellipse fill="#31688e" stroke="black" cx="864.97" cy="-538" rx="55.42" ry="18"/>
<text xml:space="preserve" text-anchor="middle" x="864.97" y="-533.33" font-family="Times,serif" font-size="14.00" fill="white">bfiocpp ✓</text>
</a>
</g>
</g>
<!-- gcld3&#45;&gt;bfiocpp -->
<!-- tensorstore -->
<g id="node34" class="node">
<title>tensorstore</title>
<g id="a_node34"><a xlink:href="https://github.com/conda-forge/tensorstore-feedstock/pull/81" xlink:title="tensorstore ✓">
<ellipse fill="#31688e" stroke="black" cx="259.97" cy="-314" rx="76.99" ry="18"/>
<text xml:space="preserve" text-anchor="middle" x="259.97" y="-309.32" font-family="Times,serif" font-size="14.00" fill="white">tensorstore ✓</text>
</a>
</g>
</g>
<!-- tensorstore&#45;&gt;ray&#45;packages -->
<g id="edge37" class="edge">
<title>tensorstore&#45;&gt;ray&#45;packages</title>
<path fill="none" stroke="black" d="M259.34,-295.72C259.52,-276.28 262.63,-244.72 278.97,-224 291.74,-207.81 310.68,-196.29 329.3,-188.22"/>
<polygon fill="black" stroke="black" points="330.5,-191.51 338.48,-184.54 327.89,-185.02 330.5,-191.51"/>
</g>
<!-- protobuf&#45;c -->
<g id="node36" class="node">
<title>protobuf&#45;c</title>
<g id="a_node36"><a xlink:href="https://github.com/conda-forge/protobuf-c-feedstock/pull/11" xlink:title="protobuf c ❎">
<ellipse fill="#31688e" stroke="black" cx="864.97" cy="-466" rx="78.04" ry="18"/>
<text xml:space="preserve" text-anchor="middle" x="864.97" y="-461.32" font-family="Times,serif" font-size="14.00" fill="white">protobuf c ❎</text>
</a>
</g>
</g>
<!-- bfiocpp&#45;&gt;protobuf&#45;c -->
<!-- casacpp -->
<g id="node37" class="node">
<title>casacpp</title>
<g id="a_node37"><a xlink:href="https://github.com/conda-forge/casacpp-feedstock/pull/16" xlink:title="casacpp ❎">
<ellipse fill="#31688e" stroke="black" cx="864.97" cy="-394" rx="66.47" ry="18"/>
<text xml:space="preserve" text-anchor="middle" x="864.97" y="-389.32" font-family="Times,serif" font-size="14.00" fill="white">casacpp ❎</text>
</a>
</g>
</g>
<!-- protobuf&#45;c&#45;&gt;casacpp -->
<!-- cel&#45;expr&#45;python -->
<g id="node38" class="node">
<title>cel&#45;expr&#45;python</title>
<g id="a_node38"><a xlink:href="https://github.com/conda-forge/cel-expr-python-feedstock/pull/8" xlink:title="cel expr python ❎">
<ellipse fill="#31688e" stroke="black" cx="864.97" cy="-90" rx="104.35" ry="18"/>
<text xml:space="preserve" text-anchor="middle" x="864.97" y="-85.33" font-family="Times,serif" font-size="14.00" fill="white">cel expr python ❎</text>
</a>
</g>
</g>
<!-- spot&#45;cpp&#45;sdk -->
<g id="node39" class="node">
<title>spot&#45;cpp&#45;sdk</title>
<g id="a_node39"><a xlink:href="https://github.com/conda-forge/spot-cpp-sdk-feedstock/pull/4" xlink:title="spot cpp sdk ✓">
<ellipse fill="#31688e" stroke="black" cx="864.97" cy="-18" rx="82.25" ry="18"/>
<text xml:space="preserve" text-anchor="middle" x="864.97" y="-13.32" font-family="Times,serif" font-size="14.00" fill="white">spot cpp sdk ✓</text>
</a>
</g>
</g>
<!-- cel&#45;expr&#45;python&#45;&gt;spot&#45;cpp&#45;sdk -->
</g>
</svg>
