<?xml version="1.0" encoding="UTF-8" standalone="no"?>
<!DOCTYPE svg PUBLIC "-//W3C//DTD SVG 1.1//EN"
 "http://www.w3.org/Graphics/SVG/1.1/DTD/svg11.dtd">
<!-- Generated by graphviz version 14.1.2 (20260126.1125)
 -->
<!-- Pages: 1 -->
<svg width="622pt" height="260pt"
 viewBox="0.00 0.00 622.00 260.00" xmlns="http://www.w3.org/2000/svg" xmlns:xlink="http://www.w3.org/1999/xlink">
<g id="graph0" class="graph" transform="scale(1 1) rotate(0) translate(4 256)">
<polygon fill="white" stroke="none" points="-4,4 -4,-256 617.59,-256 617.59,4 -4,4"/>
<!-- hdf5 -->
<g id="node1" class="node">
<title>hdf5</title>
<g id="a_node1"><a xlink:href="https://github.com/conda-forge/hdf5-feedstock" xlink:title="hdf5">
<ellipse fill="#fde725" stroke="black" cx="562.81" cy="-90" rx="33.85" ry="18"/>
<text xml:space="preserve" text-anchor="middle" x="562.81" y="-85.33" font-family="Times,serif" font-size="14.00">hdf5</text>
</a>
</g>
</g>
<!-- aws&#45;sdk&#45;cpp -->
<g id="node2" class="node">
<title>aws&#45;sdk&#45;cpp</title>
<g id="a_node2"><a xlink:href="https://github.com/conda-forge/aws-sdk-cpp-feedstock" xlink:title="aws sdk cpp">
<ellipse fill="#fde725" stroke="black" cx="199.81" cy="-18" rx="72.25" ry="18"/>
<text xml:space="preserve" text-anchor="middle" x="199.81" y="-13.32" font-family="Times,serif" font-size="14.00">aws sdk cpp</text>
</a>
</g>
</g>
<!-- aws&#45;c&#45;event&#45;stream -->
<g id="node3" class="node">
<title>aws&#45;c&#45;event&#45;stream</title>
<g id="a_node3"><a xlink:href="https://github.com/conda-forge/aws-c-event-stream-feedstock/pull/240" xlink:title="aws c event stream ❎">
<ellipse fill="#31688e" stroke="black" cx="123.81" cy="-162" rx="123.81" ry="18"/>
<text xml:space="preserve" text-anchor="middle" x="123.81" y="-157.32" font-family="Times,serif" font-size="14.00" fill="white">aws c event stream ❎</text>
</a>
</g>
</g>
<!-- aws&#45;c&#45;event&#45;stream&#45;&gt;aws&#45;sdk&#45;cpp -->
<g id="edge2" class="edge">
<title>aws&#45;c&#45;event&#45;stream&#45;&gt;aws&#45;sdk&#45;cpp</title>
<path fill="none" stroke="black" d="M133.13,-143.59C146.19,-119.18 170.06,-74.58 185.42,-45.89"/>
<polygon fill="black" stroke="black" points="188.31,-47.91 189.94,-37.45 182.13,-44.61 188.31,-47.91"/>
</g>
<!-- aws&#45;crt&#45;cpp -->
<g id="node6" class="node">
<title>aws&#45;crt&#45;cpp</title>
<g id="a_node6"><a xlink:href="https://github.com/conda-forge/aws-crt-cpp-feedstock" xlink:title="aws crt cpp">
<ellipse fill="#fde725" stroke="black" cx="275.81" cy="-90" rx="69.1" ry="18"/>
<text xml:space="preserve" text-anchor="middle" x="275.81" y="-85.33" font-family="Times,serif" font-size="14.00">aws crt cpp</text>
</a>
</g>
</g>
<!-- aws&#45;c&#45;event&#45;stream&#45;&gt;aws&#45;crt&#45;cpp -->
<g id="edge1" class="edge">
<title>aws&#45;c&#45;event&#45;stream&#45;&gt;aws&#45;crt&#45;cpp</title>
<path fill="none" stroke="black" d="M159.83,-144.41C181.68,-134.35 209.69,-121.45 232.72,-110.85"/>
<polygon fill="black" stroke="black" points="233.91,-114.15 241.53,-106.79 230.98,-107.79 233.91,-114.15"/>
</g>
<!-- awscrt -->
<g id="node8" class="node">
<title>awscrt</title>
<g id="a_node8"><a xlink:href="https://github.com/conda-forge/awscrt-feedstock" xlink:title="awscrt">
<ellipse fill="#fde725" stroke="black" cx="445.81" cy="-90" rx="44.89" ry="18"/>
<text xml:space="preserve" text-anchor="middle" x="445.81" y="-85.33" font-family="Times,serif" font-size="14.00">awscrt</text>
</a>
</g>
</g>
<!-- aws&#45;c&#45;event&#45;stream&#45;&gt;awscrt -->
<g id="edge3" class="edge">
<title>aws&#45;c&#45;event&#45;stream&#45;&gt;awscrt</title>
<path fill="none" stroke="black" d="M190.53,-146.5C251.58,-133.22 340.56,-113.88 395.73,-101.89"/>
<polygon fill="black" stroke="black" points="396.46,-105.31 405.49,-99.77 394.97,-98.47 396.46,-105.31"/>
</g>
<!-- aws&#45;c&#45;mqtt -->
<g id="node4" class="node">
<title>aws&#45;c&#45;mqtt</title>
<g id="a_node4"><a xlink:href="https://github.com/conda-forge/aws-c-mqtt-feedstock" xlink:title="aws c mqtt">
<ellipse fill="#35b779" stroke="black" cx="369.81" cy="-162" rx="66.47" ry="18"/>
<text xml:space="preserve" text-anchor="middle" x="369.81" y="-157.32" font-family="Times,serif" font-size="14.00">aws c mqtt</text>
</a>
</g>
</g>
<!-- aws&#45;c&#45;mqtt&#45;&gt;aws&#45;crt&#45;cpp -->
<g id="edge4" class="edge">
<title>aws&#45;c&#45;mqtt&#45;&gt;aws&#45;crt&#45;cpp</title>
<path fill="none" stroke="black" d="M348.01,-144.76C335.76,-135.64 320.27,-124.1 306.78,-114.06"/>
<polygon fill="black" stroke="black" points="309.15,-111.46 299.03,-108.29 304.96,-117.07 309.15,-111.46"/>
</g>
<!-- aws&#45;c&#45;mqtt&#45;&gt;awscrt -->
<g id="edge5" class="edge">
<title>aws&#45;c&#45;mqtt&#45;&gt;awscrt</title>
<path fill="none" stroke="black" d="M387.82,-144.41C397.52,-135.48 409.65,-124.31 420.3,-114.5"/>
<polygon fill="black" stroke="black" points="422.36,-117.36 427.34,-108.01 417.61,-112.21 422.36,-117.36"/>
</g>
<!-- aws&#45;c&#45;auth -->
<g id="node5" class="node">
<title>aws&#45;c&#45;auth</title>
<g id="a_node5"><a xlink:href="https://github.com/conda-forge/aws-c-auth-feedstock" xlink:title="aws c auth">
<ellipse fill="#35b779" stroke="black" cx="504.81" cy="-234" rx="64.89" ry="18"/>
<text xml:space="preserve" text-anchor="middle" x="504.81" y="-229.32" font-family="Times,serif" font-size="14.00">aws c auth</text>
</a>
</g>
</g>
<!-- aws&#45;c&#45;auth&#45;&gt;hdf5 -->
<g id="edge9" class="edge">
<title>aws&#45;c&#45;auth&#45;&gt;hdf5</title>
<path fill="none" stroke="black" d="M551.73,-221.28C573.05,-213.35 596.26,-200.48 608.81,-180 622.21,-158.14 604.92,-131.94 587.85,-113.65"/>
<polygon fill="black" stroke="black" points="590.71,-111.57 581.19,-106.92 585.74,-116.49 590.71,-111.57"/>
</g>
<!-- aws&#45;c&#45;auth&#45;&gt;aws&#45;crt&#45;cpp -->
<g id="edge7" class="edge">
<title>aws&#45;c&#45;auth&#45;&gt;aws&#45;crt&#45;cpp</title>
<path fill="none" stroke="black" d="M447.17,-225.37C392.5,-216.95 315.69,-201.66 294.81,-180 279.47,-164.08 275.22,-138.97 274.53,-119.47"/>
<polygon fill="black" stroke="black" points="278.03,-119.69 274.49,-109.7 271.03,-119.72 278.03,-119.69"/>
</g>
<!-- aws&#45;c&#45;s3 -->
<g id="node7" class="node">
<title>aws&#45;c&#45;s3</title>
<g id="a_node7"><a xlink:href="https://github.com/conda-forge/aws-c-s3-feedstock" xlink:title="aws c s3">
<ellipse fill="#fde725" stroke="black" cx="545.81" cy="-162" rx="53.84" ry="18"/>
<text xml:space="preserve" text-anchor="middle" x="545.81" y="-157.32" font-family="Times,serif" font-size="14.00">aws c s3</text>
</a>
</g>
</g>
<!-- aws&#45;c&#45;auth&#45;&gt;aws&#45;c&#45;s3 -->
<g id="edge6" class="edge">
<title>aws&#45;c&#45;auth&#45;&gt;aws&#45;c&#45;s3</title>
<path fill="none" stroke="black" d="M514.74,-216.05C519.37,-208.14 525,-198.54 530.18,-189.69"/>
<polygon fill="black" stroke="black" points="533.18,-191.49 535.21,-181.1 527.14,-187.95 533.18,-191.49"/>
</g>
<!-- aws&#45;c&#45;auth&#45;&gt;awscrt -->
<g id="edge8" class="edge">
<title>aws&#45;c&#45;auth&#45;&gt;awscrt</title>
<path fill="none" stroke="black" d="M497.69,-215.87C487.68,-191.78 469.33,-147.6 457.35,-118.77"/>
<polygon fill="black" stroke="black" points="460.6,-117.48 453.53,-109.59 454.14,-120.16 460.6,-117.48"/>
</g>
<!-- aws&#45;crt&#45;cpp&#45;&gt;aws&#45;sdk&#45;cpp -->
<g id="edge10" class="edge">
<title>aws&#45;crt&#45;cpp&#45;&gt;aws&#45;sdk&#45;cpp</title>
<path fill="none" stroke="black" d="M257.8,-72.41C248.4,-63.76 236.73,-53 226.32,-43.42"/>
<polygon fill="black" stroke="black" points="228.8,-40.94 219.07,-36.74 224.05,-46.09 228.8,-40.94"/>
</g>
<!-- aws&#45;c&#45;s3&#45;&gt;hdf5 -->
<g id="edge13" class="edge">
<title>aws&#45;c&#45;s3&#45;&gt;hdf5</title>
<path fill="none" stroke="black" d="M550.01,-143.7C551.8,-136.32 553.94,-127.52 555.95,-119.25"/>
<polygon fill="black" stroke="black" points="559.34,-120.12 558.3,-109.58 552.54,-118.47 559.34,-120.12"/>
</g>
<!-- aws&#45;c&#45;s3&#45;&gt;aws&#45;crt&#45;cpp -->
<g id="edge11" class="edge">
<title>aws&#45;c&#45;s3&#45;&gt;aws&#45;crt&#45;cpp</title>
<path fill="none" stroke="black" d="M504.22,-150.22C458.74,-138.43 385.52,-119.44 334.28,-106.16"/>
<polygon fill="black" stroke="black" points="335.39,-102.83 324.84,-103.71 333.64,-109.61 335.39,-102.83"/>
</g>
<!-- aws&#45;c&#45;s3&#45;&gt;awscrt -->
<g id="edge12" class="edge">
<title>aws&#45;c&#45;s3&#45;&gt;awscrt</title>
<path fill="none" stroke="black" d="M523.62,-145.46C509.7,-135.72 491.58,-123.04 476.32,-112.36"/>
<polygon fill="black" stroke="black" points="478.7,-109.75 468.5,-106.88 474.68,-115.48 478.7,-109.75"/>
</g>
</g>
</svg>
