<?xml version="1.0" encoding="UTF-8" standalone="no"?>
<!DOCTYPE svg PUBLIC "-//W3C//DTD SVG 1.1//EN"
 "http://www.w3.org/Graphics/SVG/1.1/DTD/svg11.dtd">
<!-- Generated by graphviz version 14.1.2 (20260126.1125)
 -->
<!-- Pages: 1 -->
<svg width="2946pt" height="548pt"
 viewBox="0.00 0.00 2946.00 548.00" xmlns="http://www.w3.org/2000/svg" xmlns:xlink="http://www.w3.org/1999/xlink">
<g id="graph0" class="graph" transform="scale(1 1) rotate(0) translate(4 544)">
<polygon fill="white" stroke="none" points="-4,4 -4,-544 2942.25,-544 2942.25,4 -4,4"/>
<!-- openturns -->
<g id="node1" class="node">
<title>openturns</title>
<g id="a_node1"><a xlink:href="https://github.com/conda-forge/openturns-feedstock" xlink:title="openturns">
<ellipse fill="#fde725" stroke="black" cx="1215.53" cy="-378" rx="62.26" ry="18"/>
<text xml:space="preserve" text-anchor="middle" x="1215.53" y="-373.32" font-family="Times,serif" font-size="14.00">openturns</text>
</a>
</g>
</g>
<!-- r&#45;rcppparallel -->
<g id="node2" class="node">
<title>r&#45;rcppparallel</title>
<g id="a_node2"><a xlink:href="https://github.com/conda-forge/r-rcppparallel-feedstock/pull/45" xlink:title="r rcppparallel ✓">
<ellipse fill="#31688e" stroke="black" cx="2129.53" cy="-522" rx="87.51" ry="18"/>
<text xml:space="preserve" text-anchor="middle" x="2129.53" y="-517.33" font-family="Times,serif" font-size="14.00" fill="white">r rcppparallel ✓</text>
</a>
</g>
</g>
<!-- r&#45;rstan -->
<g id="node3" class="node">
<title>r&#45;rstan</title>
<g id="a_node3"><a xlink:href="https://github.com/conda-forge/r-rstan-feedstock" xlink:title="r rstan">
<ellipse fill="#fde725" stroke="black" cx="2284.53" cy="-450" rx="45.42" ry="18"/>
<text xml:space="preserve" text-anchor="middle" x="2284.53" y="-445.32" font-family="Times,serif" font-size="14.00">r rstan</text>
</a>
</g>
</g>
<!-- r&#45;rcppparallel&#45;&gt;r&#45;rstan -->
<g id="edge1" class="edge">
<title>r&#45;rcppparallel&#45;&gt;r&#45;rstan</title>
<path fill="none" stroke="black" d="M2164.7,-505.12C2188.51,-494.36 2220.01,-480.14 2244.73,-468.97"/>
<polygon fill="black" stroke="black" points="2246.17,-472.17 2253.84,-464.86 2243.29,-465.79 2246.17,-472.17"/>
</g>
<!-- r&#45;rstanarm -->
<g id="node4" class="node">
<title>r&#45;rstanarm</title>
<g id="a_node4"><a xlink:href="https://github.com/conda-forge/r-rstanarm-feedstock" xlink:title="r rstanarm">
<ellipse fill="#fde725" stroke="black" cx="2299.53" cy="-378" rx="65.41" ry="18"/>
<text xml:space="preserve" text-anchor="middle" x="2299.53" y="-373.32" font-family="Times,serif" font-size="14.00">r rstanarm</text>
</a>
</g>
</g>
<!-- r&#45;rcppparallel&#45;&gt;r&#45;rstanarm -->
<g id="edge2" class="edge">
<title>r&#45;rcppparallel&#45;&gt;r&#45;rstanarm</title>
<path fill="none" stroke="black" d="M2147.82,-504.22C2167.81,-486.03 2200.94,-456.36 2230.53,-432 2242.68,-422 2256.36,-411.37 2268.32,-402.27"/>
<polygon fill="black" stroke="black" points="2270.41,-405.08 2276.28,-396.25 2266.19,-399.49 2270.41,-405.08"/>
</g>
<!-- r&#45;rfast -->
<g id="node5" class="node">
<title>r&#45;rfast</title>
<g id="a_node5"><a xlink:href="https://github.com/conda-forge/r-rfast-feedstock" xlink:title="r rfast">
<ellipse fill="#fde725" stroke="black" cx="1568.53" cy="-378" rx="42.79" ry="18"/>
<text xml:space="preserve" text-anchor="middle" x="1568.53" y="-373.32" font-family="Times,serif" font-size="14.00">r rfast</text>
</a>
</g>
</g>
<!-- r&#45;rcppparallel&#45;&gt;r&#45;rfast -->
<g id="edge3" class="edge">
<title>r&#45;rcppparallel&#45;&gt;r&#45;rfast</title>
<path fill="none" stroke="black" d="M2064.38,-509.63C2010.52,-499.83 1932.18,-484.67 1864.53,-468 1754.33,-440.84 1727.83,-429.95 1619.53,-396 1617.01,-395.21 1614.43,-394.39 1611.83,-393.55"/>
<polygon fill="black" stroke="black" points="1613.15,-390.3 1602.56,-390.53 1610.98,-396.96 1613.15,-390.3"/>
</g>
<!-- r&#45;stringfish -->
<g id="node6" class="node">
<title>r&#45;stringfish</title>
<g id="a_node6"><a xlink:href="https://github.com/conda-forge/r-stringfish-feedstock" xlink:title="r stringfish">
<ellipse fill="#fde725" stroke="black" cx="2468.53" cy="-450" rx="66.99" ry="18"/>
<text xml:space="preserve" text-anchor="middle" x="2468.53" y="-445.32" font-family="Times,serif" font-size="14.00">r stringfish</text>
</a>
</g>
</g>
<!-- r&#45;rcppparallel&#45;&gt;r&#45;stringfish -->
<g id="edge4" class="edge">
<title>r&#45;rcppparallel&#45;&gt;r&#45;stringfish</title>
<path fill="none" stroke="black" d="M2189.75,-508.57C2250.47,-496.03 2343.8,-476.75 2405.51,-464.01"/>
<polygon fill="black" stroke="black" points="2406.08,-467.47 2415.16,-462.02 2404.66,-460.61 2406.08,-467.47"/>
</g>
<!-- r&#45;datavisualizations -->
<g id="node7" class="node">
<title>r&#45;datavisualizations</title>
<g id="a_node7"><a xlink:href="https://github.com/conda-forge/r-datavisualizations-feedstock" xlink:title="r datavisualizations">
<ellipse fill="#fde725" stroke="black" cx="1738.53" cy="-378" rx="109.61" ry="18"/>
<text xml:space="preserve" text-anchor="middle" x="1738.53" y="-373.32" font-family="Times,serif" font-size="14.00">r datavisualizations</text>
</a>
</g>
</g>
<!-- r&#45;rcppparallel&#45;&gt;r&#45;datavisualizations -->
<g id="edge5" class="edge">
<title>r&#45;rcppparallel&#45;&gt;r&#45;datavisualizations</title>
<path fill="none" stroke="black" d="M2080.39,-506.68C2046.48,-496.54 2000.5,-482.25 1960.53,-468 1900.19,-446.48 1831.95,-418.57 1787.25,-399.8"/>
<polygon fill="black" stroke="black" points="1788.66,-396.59 1778.08,-395.93 1785.94,-403.04 1788.66,-396.59"/>
</g>
<!-- r&#45;jfa -->
<g id="node8" class="node">
<title>r&#45;jfa</title>
<g id="a_node8"><a xlink:href="https://github.com/conda-forge/r-jfa-feedstock" xlink:title="r jfa">
<ellipse fill="#fde725" stroke="black" cx="2414.53" cy="-378" rx="31.74" ry="18"/>
<text xml:space="preserve" text-anchor="middle" x="2414.53" y="-373.32" font-family="Times,serif" font-size="14.00">r jfa</text>
</a>
</g>
</g>
<!-- r&#45;rcppparallel&#45;&gt;r&#45;jfa -->
<g id="edge6" class="edge">
<title>r&#45;rcppparallel&#45;&gt;r&#45;jfa</title>
<path fill="none" stroke="black" d="M2205.99,-513.06C2247.62,-506.02 2298.63,-492.8 2338.53,-468 2363.92,-452.22 2385.23,-425.17 2398.76,-405.03"/>
<polygon fill="black" stroke="black" points="2401.62,-407.06 2404.12,-396.77 2395.74,-403.26 2401.62,-407.06"/>
</g>
<!-- r&#45;densestbayes -->
<g id="node9" class="node">
<title>r&#45;densestbayes</title>
<g id="a_node9"><a xlink:href="https://github.com/conda-forge/r-densestbayes-feedstock" xlink:title="r densestbayes">
<ellipse fill="#fde725" stroke="black" cx="2129.53" cy="-378" rx="86.98" ry="18"/>
<text xml:space="preserve" text-anchor="middle" x="2129.53" y="-373.32" font-family="Times,serif" font-size="14.00">r densestbayes</text>
</a>
</g>
</g>
<!-- r&#45;rcppparallel&#45;&gt;r&#45;densestbayes -->
<g id="edge7" class="edge">
<title>r&#45;rcppparallel&#45;&gt;r&#45;densestbayes</title>
<path fill="none" stroke="black" d="M2129.53,-503.59C2129.53,-479.61 2129.53,-436.14 2129.53,-407.42"/>
<polygon fill="black" stroke="black" points="2133.03,-407.62 2129.53,-397.62 2126.03,-407.62 2133.03,-407.62"/>
</g>
<!-- r&#45;rxode2ll -->
<g id="node10" class="node">
<title>r&#45;rxode2ll</title>
<g id="a_node10"><a xlink:href="https://github.com/conda-forge/r-rxode2ll-feedstock" xlink:title="r rxode2ll">
<ellipse fill="#fde725" stroke="black" cx="1926.53" cy="-378" rx="60.15" ry="18"/>
<text xml:space="preserve" text-anchor="middle" x="1926.53" y="-373.32" font-family="Times,serif" font-size="14.00">r rxode2ll</text>
</a>
</g>
</g>
<!-- r&#45;rcppparallel&#45;&gt;r&#45;rxode2ll -->
<g id="edge8" class="edge">
<title>r&#45;rcppparallel&#45;&gt;r&#45;rxode2ll</title>
<path fill="none" stroke="black" d="M2079.44,-506.8C2054.25,-498.13 2024.14,-485.34 2000.53,-468 1977.22,-450.88 1956.73,-424.88 1943.26,-405.4"/>
<polygon fill="black" stroke="black" points="1946.2,-403.5 1937.72,-397.14 1940.39,-407.4 1946.2,-403.5"/>
</g>
<!-- r&#45;rxode2 -->
<g id="node11" class="node">
<title>r&#45;rxode2</title>
<g id="a_node11"><a xlink:href="https://github.com/conda-forge/r-rxode2-feedstock" xlink:title="r rxode2">
<ellipse fill="#fde725" stroke="black" cx="1970.53" cy="-306" rx="53.84" ry="18"/>
<text xml:space="preserve" text-anchor="middle" x="1970.53" y="-301.32" font-family="Times,serif" font-size="14.00">r rxode2</text>
</a>
</g>
</g>
<!-- r&#45;rcppparallel&#45;&gt;r&#45;rxode2 -->
<g id="edge9" class="edge">
<title>r&#45;rcppparallel&#45;&gt;r&#45;rxode2</title>
<path fill="none" stroke="black" d="M2115.96,-503.77C2097.16,-479.81 2062.28,-434.98 2033.53,-396 2018.08,-375.05 2001.04,-350.92 1988.59,-333.08"/>
<polygon fill="black" stroke="black" points="1991.63,-331.32 1983.05,-325.11 1985.89,-335.32 1991.63,-331.32"/>
</g>
<!-- r&#45;rstan&#45;&gt;r&#45;rstanarm -->
<g id="edge10" class="edge">
<title>r&#45;rstan&#45;&gt;r&#45;rstanarm</title>
<path fill="none" stroke="black" d="M2288.24,-431.7C2289.82,-424.32 2291.7,-415.52 2293.48,-407.25"/>
<polygon fill="black" stroke="black" points="2296.87,-408.1 2295.55,-397.58 2290.03,-406.63 2296.87,-408.1"/>
</g>
<!-- r&#45;rstan&#45;&gt;r&#45;jfa -->
<g id="edge11" class="edge">
<title>r&#45;rstan&#45;&gt;r&#45;jfa</title>
<path fill="none" stroke="black" d="M2310.52,-435C2331.12,-423.91 2360.01,-408.36 2382.12,-396.45"/>
<polygon fill="black" stroke="black" points="2383.57,-399.65 2390.72,-391.82 2380.25,-393.48 2383.57,-399.65"/>
</g>
<!-- r&#45;rstan&#45;&gt;r&#45;densestbayes -->
<g id="edge12" class="edge">
<title>r&#45;rstan&#45;&gt;r&#45;densestbayes</title>
<path fill="none" stroke="black" d="M2255.38,-435.83C2232.72,-425.6 2200.87,-411.22 2174.89,-399.49"/>
<polygon fill="black" stroke="black" points="2176.46,-396.35 2165.9,-395.43 2173.58,-402.73 2176.46,-396.35"/>
</g>
<!-- r&#45;stringfish&#45;&gt;r&#45;rxode2 -->
<g id="edge13" class="edge">
<title>r&#45;stringfish&#45;&gt;r&#45;rxode2</title>
<path fill="none" stroke="black" d="M2471.58,-431.86C2474.1,-411.63 2474.64,-378.43 2455.53,-360 2425.82,-331.35 2160.19,-315.6 2035.12,-309.72"/>
<polygon fill="black" stroke="black" points="2035.49,-306.23 2025.34,-309.27 2035.17,-313.22 2035.49,-306.23"/>
</g>
<!-- r&#45;rxode2ll&#45;&gt;r&#45;rxode2 -->
<g id="edge14" class="edge">
<title>r&#45;rxode2ll&#45;&gt;r&#45;rxode2</title>
<path fill="none" stroke="black" d="M1937.18,-360.05C1942.21,-352.06 1948.32,-342.33 1953.94,-333.4"/>
<polygon fill="black" stroke="black" points="1956.81,-335.4 1959.17,-325.07 1950.89,-331.67 1956.81,-335.4"/>
</g>
<!-- numba -->
<g id="node12" class="node">
<title>numba</title>
<g id="a_node12"><a xlink:href="https://github.com/conda-forge/numba-feedstock/pull/186" xlink:title="numba ❎">
<ellipse fill="#31688e" stroke="black" cx="81.53" cy="-450" rx="60.68" ry="18"/>
<text xml:space="preserve" text-anchor="middle" x="81.53" y="-445.32" font-family="Times,serif" font-size="14.00" fill="white">numba ❎</text>
</a>
</g>
</g>
<!-- root -->
<g id="node13" class="node">
<title>root</title>
<g id="a_node13"><a xlink:href="https://github.com/conda-forge/root-feedstock" xlink:title="root">
<ellipse fill="#fde725" stroke="black" cx="124.53" cy="-378" rx="31.74" ry="18"/>
<text xml:space="preserve" text-anchor="middle" x="124.53" y="-373.32" font-family="Times,serif" font-size="14.00">root</text>
</a>
</g>
</g>
<!-- numba&#45;&gt;root -->
<g id="edge15" class="edge">
<title>numba&#45;&gt;root</title>
<path fill="none" stroke="black" d="M91.94,-432.05C96.92,-423.94 103,-414.04 108.55,-405.01"/>
<polygon fill="black" stroke="black" points="111.47,-406.95 113.72,-396.6 105.5,-403.29 111.47,-406.95"/>
</g>
<!-- scipp -->
<g id="node14" class="node">
<title>scipp</title>
<g id="a_node14"><a xlink:href="https://github.com/conda-forge/scipp-feedstock" xlink:title="scipp">
<ellipse fill="#fde725" stroke="black" cx="37.53" cy="-378" rx="37.53" ry="18"/>
<text xml:space="preserve" text-anchor="middle" x="37.53" y="-373.32" font-family="Times,serif" font-size="14.00">scipp</text>
</a>
</g>
</g>
<!-- numba&#45;&gt;scipp -->
<g id="edge16" class="edge">
<title>numba&#45;&gt;scipp</title>
<path fill="none" stroke="black" d="M70.88,-432.05C65.78,-423.94 59.56,-414.04 53.88,-405.01"/>
<polygon fill="black" stroke="black" points="56.87,-403.19 48.59,-396.59 50.94,-406.92 56.87,-403.19"/>
</g>
<!-- dd4hep -->
<g id="node15" class="node">
<title>dd4hep</title>
<g id="a_node15"><a xlink:href="https://github.com/conda-forge/dd4hep-feedstock" xlink:title="dd4hep">
<ellipse fill="#fde725" stroke="black" cx="107.53" cy="-306" rx="48.58" ry="18"/>
<text xml:space="preserve" text-anchor="middle" x="107.53" y="-301.32" font-family="Times,serif" font-size="14.00">dd4hep</text>
</a>
</g>
</g>
<!-- root&#45;&gt;dd4hep -->
<g id="edge17" class="edge">
<title>root&#45;&gt;dd4hep</title>
<path fill="none" stroke="black" d="M120.33,-359.7C118.54,-352.32 116.4,-343.52 114.39,-335.25"/>
<polygon fill="black" stroke="black" points="117.8,-334.47 112.04,-325.58 111,-336.12 117.8,-334.47"/>
</g>
<!-- r&#45;quanteda -->
<g id="node16" class="node">
<title>r&#45;quanteda</title>
<g id="a_node16"><a xlink:href="https://github.com/conda-forge/r-quanteda-feedstock/pull/47" xlink:title="r quanteda ✓">
<ellipse fill="#31688e" stroke="black" cx="524.53" cy="-306" rx="73.83" ry="18"/>
<text xml:space="preserve" text-anchor="middle" x="524.53" y="-301.32" font-family="Times,serif" font-size="14.00" fill="white">r quanteda ✓</text>
</a>
</g>
</g>
<!-- r&#45;quanteda.textstats -->
<g id="node17" class="node">
<title>r&#45;quanteda.textstats</title>
<g id="a_node17"><a xlink:href="https://github.com/conda-forge/r-quanteda.textstats-feedstock" xlink:title="r quanteda textstats">
<ellipse fill="#fde725" stroke="black" cx="586.53" cy="-234" rx="113.82" ry="18"/>
<text xml:space="preserve" text-anchor="middle" x="586.53" y="-229.32" font-family="Times,serif" font-size="14.00">r quanteda textstats</text>
</a>
</g>
</g>
<!-- r&#45;quanteda&#45;&gt;r&#45;quanteda.textstats -->
<g id="edge18" class="edge">
<title>r&#45;quanteda&#45;&gt;r&#45;quanteda.textstats</title>
<path fill="none" stroke="black" d="M539.54,-288.05C546.82,-279.84 555.72,-269.79 563.8,-260.66"/>
<polygon fill="black" stroke="black" points="566.22,-263.21 570.23,-253.41 560.98,-258.57 566.22,-263.21"/>
</g>
<!-- embree3 -->
<g id="node18" class="node">
<title>embree3</title>
<g id="a_node18"><a xlink:href="https://github.com/conda-forge/embree3-feedstock/pull/45" xlink:title="embree3 ❎">
<ellipse fill="#31688e" stroke="black" cx="2644.53" cy="-522" rx="70.68" ry="18"/>
<text xml:space="preserve" text-anchor="middle" x="2644.53" y="-517.33" font-family="Times,serif" font-size="14.00" fill="white">embree3 ❎</text>
</a>
</g>
</g>
<!-- freud -->
<g id="node19" class="node">
<title>freud</title>
<g id="a_node19"><a xlink:href="https://github.com/conda-forge/freud-feedstock/pull/75" xlink:title="freud ❎">
<ellipse fill="#31688e" stroke="black" cx="2644.53" cy="-450" rx="53.31" ry="18"/>
<text xml:space="preserve" text-anchor="middle" x="2644.53" y="-445.32" font-family="Times,serif" font-size="14.00" fill="white">freud ❎</text>
</a>
</g>
</g>
<!-- embree3&#45;&gt;freud -->
<!-- dealii -->
<g id="node20" class="node">
<title>dealii</title>
<g id="a_node20"><a xlink:href="https://github.com/conda-forge/dealii-feedstock/pull/37" xlink:title="dealii ❎">
<ellipse fill="#31688e" stroke="black" cx="2644.53" cy="-378" rx="53.84" ry="18"/>
<text xml:space="preserve" text-anchor="middle" x="2644.53" y="-373.32" font-family="Times,serif" font-size="14.00" fill="white">dealii ❎</text>
</a>
</g>
</g>
<!-- freud&#45;&gt;dealii -->
<!-- topologytoolkit -->
<g id="node21" class="node">
<title>topologytoolkit</title>
<g id="a_node21"><a xlink:href="https://github.com/conda-forge/topologytoolkit-feedstock/pull/101" xlink:title="topologytoolkit ❎">
<ellipse fill="#31688e" stroke="black" cx="2644.53" cy="-306" rx="101.71" ry="18"/>
<text xml:space="preserve" text-anchor="middle" x="2644.53" y="-301.32" font-family="Times,serif" font-size="14.00" fill="white">topologytoolkit ❎</text>
</a>
</g>
</g>
<!-- dealii&#45;&gt;topologytoolkit -->
<!-- dcgp&#45;python -->
<g id="node23" class="node">
<title>dcgp&#45;python</title>
<g id="a_node23"><a xlink:href="https://github.com/conda-forge/dcgp-python-feedstock/pull/33" xlink:title="dcgp python ❎">
<ellipse fill="#31688e" stroke="black" cx="2644.53" cy="-234" rx="88.56" ry="18"/>
<text xml:space="preserve" text-anchor="middle" x="2644.53" y="-229.32" font-family="Times,serif" font-size="14.00" fill="white">dcgp python ❎</text>
</a>
</g>
</g>
<!-- topologytoolkit&#45;&gt;dcgp&#45;python -->
<!-- r&#45;proxyc -->
<g id="node22" class="node">
<title>r&#45;proxyc</title>
<g id="a_node22"><a xlink:href="https://github.com/conda-forge/r-proxyc-feedstock" xlink:title="r proxyc">
<ellipse fill="#fde725" stroke="black" cx="669.53" cy="-306" rx="52.79" ry="18"/>
<text xml:space="preserve" text-anchor="middle" x="669.53" y="-301.32" font-family="Times,serif" font-size="14.00">r proxyc</text>
</a>
</g>
</g>
<!-- r&#45;proxyc&#45;&gt;r&#45;quanteda.textstats -->
<g id="edge22" class="edge">
<title>r&#45;proxyc&#45;&gt;r&#45;quanteda.textstats</title>
<path fill="none" stroke="black" d="M650.28,-288.76C639.9,-280.01 626.88,-269.03 615.32,-259.28"/>
<polygon fill="black" stroke="black" points="617.89,-256.87 607.99,-253.1 613.38,-262.22 617.89,-256.87"/>
</g>
<!-- onednn -->
<g id="node26" class="node">
<title>onednn</title>
<g id="a_node26"><a xlink:href="https://github.com/conda-forge/onednn-feedstock/pull/104" xlink:title="onednn ❎">
<ellipse fill="#31688e" stroke="black" cx="2644.53" cy="-162" rx="63.31" ry="18"/>
<text xml:space="preserve" text-anchor="middle" x="2644.53" y="-157.32" font-family="Times,serif" font-size="14.00" fill="white">onednn ❎</text>
</a>
</g>
</g>
<!-- dcgp&#45;python&#45;&gt;onednn -->
<!-- gazebo -->
<g id="node24" class="node">
<title>gazebo</title>
<g id="a_node24"><a xlink:href="https://github.com/conda-forge/gazebo-feedstock" xlink:title="gazebo">
<ellipse fill="#fde725" stroke="black" cx="875.53" cy="-234" rx="46.47" ry="18"/>
<text xml:space="preserve" text-anchor="middle" x="875.53" y="-229.32" font-family="Times,serif" font-size="14.00">gazebo</text>
</a>
</g>
</g>
<!-- gazebo&#45;yarp&#45;plugins -->
<g id="node25" class="node">
<title>gazebo&#45;yarp&#45;plugins</title>
<g id="a_node25"><a xlink:href="https://github.com/conda-forge/gazebo-yarp-plugins-feedstock" xlink:title="gazebo yarp plugins">
<ellipse fill="#fde725" stroke="black" cx="890.53" cy="-162" rx="112.24" ry="18"/>
<text xml:space="preserve" text-anchor="middle" x="890.53" y="-157.32" font-family="Times,serif" font-size="14.00">gazebo yarp plugins</text>
</a>
</g>
</g>
<!-- gazebo&#45;&gt;gazebo&#45;yarp&#45;plugins -->
<g id="edge24" class="edge">
<title>gazebo&#45;&gt;gazebo&#45;yarp&#45;plugins</title>
<path fill="none" stroke="black" d="M879.24,-215.7C880.82,-208.32 882.7,-199.52 884.48,-191.25"/>
<polygon fill="black" stroke="black" points="887.87,-192.1 886.55,-181.58 881.03,-190.63 887.87,-192.1"/>
</g>
<!-- mold -->
<g id="node42" class="node">
<title>mold</title>
<g id="a_node42"><a xlink:href="https://github.com/conda-forge/mold-feedstock/pull/48" xlink:title="mold ❎">
<ellipse fill="#31688e" stroke="black" cx="2644.53" cy="-90" rx="51.21" ry="18"/>
<text xml:space="preserve" text-anchor="middle" x="2644.53" y="-85.33" font-family="Times,serif" font-size="14.00" fill="white">mold ❎</text>
</a>
</g>
</g>
<!-- onednn&#45;&gt;mold -->
<!-- intel_repack -->
<g id="node27" class="node">
<title>intel_repack</title>
<g id="a_node27"><a xlink:href="https://github.com/conda-forge/intel_repack-feedstock" xlink:title="intel_repack">
<ellipse fill="#fde725" stroke="black" cx="861.53" cy="-450" rx="72.25" ry="18"/>
<text xml:space="preserve" text-anchor="middle" x="861.53" y="-445.32" font-family="Times,serif" font-size="14.00">intel_repack</text>
</a>
</g>
</g>
<!-- intel_repack&#45;&gt;openturns -->
<g id="edge26" class="edge">
<title>intel_repack&#45;&gt;openturns</title>
<path fill="none" stroke="black" d="M919.47,-438.92C976.59,-428.78 1066.29,-412.37 1143.53,-396 1148.32,-394.98 1153.29,-393.89 1158.27,-392.77"/>
<polygon fill="black" stroke="black" points="1158.68,-396.27 1167.65,-390.63 1157.12,-389.44 1158.68,-396.27"/>
</g>
<!-- intel_repack&#45;&gt;r&#45;rfast -->
<g id="edge27" class="edge">
<title>intel_repack&#45;&gt;r&#45;rfast</title>
<path fill="none" stroke="black" d="M934.02,-448.67C1055.64,-446.89 1307.93,-437.93 1516.53,-396 1519.67,-395.37 1522.89,-394.61 1526.11,-393.76"/>
<polygon fill="black" stroke="black" points="1526.86,-397.19 1535.49,-391.05 1524.91,-390.47 1526.86,-397.19"/>
</g>
<!-- intel_repack&#45;&gt;r&#45;datavisualizations -->
<g id="edge28" class="edge">
<title>intel_repack&#45;&gt;r&#45;datavisualizations</title>
<path fill="none" stroke="black" d="M932.31,-445.79C1066.72,-439.32 1368.02,-422.97 1620.53,-396 1629.85,-395 1639.56,-393.83 1649.24,-392.57"/>
<polygon fill="black" stroke="black" points="1649.61,-396.05 1659.06,-391.26 1648.68,-389.11 1649.61,-396.05"/>
</g>
<!-- intel_repack&#45;&gt;r&#45;densestbayes -->
<g id="edge29" class="edge">
<title>intel_repack&#45;&gt;r&#45;densestbayes</title>
<path fill="none" stroke="black" d="M932.83,-446.41C1147.81,-438.49 1787.64,-414.02 1995.53,-396 2012.59,-394.52 2030.81,-392.5 2048.15,-390.37"/>
<polygon fill="black" stroke="black" points="2048.41,-393.87 2057.9,-389.15 2047.54,-386.92 2048.41,-393.87"/>
</g>
<!-- intel_repack&#45;&gt;r&#45;rxode2 -->
<g id="edge30" class="edge">
<title>intel_repack&#45;&gt;r&#45;rxode2</title>
<path fill="none" stroke="black" d="M931.98,-445.78C1042.62,-439.9 1251.51,-425.25 1319.53,-396 1342.43,-386.15 1339.5,-369.52 1362.53,-360 1459.22,-320.03 1768.58,-310.19 1904.93,-307.78"/>
<polygon fill="black" stroke="black" points="1904.95,-311.28 1914.89,-307.61 1904.83,-304.28 1904.95,-311.28"/>
</g>
<!-- intel_repack&#45;&gt;root -->
<g id="edge31" class="edge">
<title>intel_repack&#45;&gt;root</title>
<path fill="none" stroke="black" d="M790.55,-446.05C638.83,-439.35 287.26,-421.52 170.53,-396 167.15,-395.26 163.68,-394.33 160.23,-393.28"/>
<polygon fill="black" stroke="black" points="161.49,-390.01 150.89,-390.13 159.25,-396.64 161.49,-390.01"/>
</g>
<!-- intel_repack&#45;&gt;scipp -->
<g id="edge32" class="edge">
<title>intel_repack&#45;&gt;scipp</title>
<path fill="none" stroke="black" d="M790.13,-446.74C624.33,-441.08 217.23,-424.64 83.53,-396 80.93,-395.44 78.28,-394.77 75.63,-394.02"/>
<polygon fill="black" stroke="black" points="76.91,-390.75 66.32,-391.02 74.77,-397.41 76.91,-390.75"/>
</g>
<!-- intel_repack&#45;&gt;r&#45;proxyc -->
<g id="edge33" class="edge">
<title>intel_repack&#45;&gt;r&#45;proxyc</title>
<path fill="none" stroke="black" d="M815.07,-435.82C790.09,-427.2 759.75,-414.14 736.53,-396 714.7,-378.94 696.32,-353.11 684.37,-333.66"/>
<polygon fill="black" stroke="black" points="687.45,-331.99 679.33,-325.18 681.43,-335.56 687.45,-331.99"/>
</g>
<!-- intel_repack&#45;&gt;gazebo -->
<g id="edge34" class="edge">
<title>intel_repack&#45;&gt;gazebo</title>
<path fill="none" stroke="black" d="M864.46,-431.68C868.36,-407.61 875.07,-362.65 877.53,-324 878.55,-308.03 877.83,-304 877.53,-288 877.38,-280.05 877.1,-271.44 876.8,-263.51"/>
<polygon fill="black" stroke="black" points="880.31,-263.54 876.4,-253.69 873.31,-263.83 880.31,-263.54"/>
</g>
<!-- foamalgo -->
<g id="node28" class="node">
<title>foamalgo</title>
<g id="a_node28"><a xlink:href="https://github.com/conda-forge/foamalgo-feedstock" xlink:title="foamalgo">
<ellipse fill="#fde725" stroke="black" cx="1077.53" cy="-162" rx="57" ry="18"/>
<text xml:space="preserve" text-anchor="middle" x="1077.53" y="-157.32" font-family="Times,serif" font-size="14.00">foamalgo</text>
</a>
</g>
</g>
<!-- intel_repack&#45;&gt;foamalgo -->
<g id="edge35" class="edge">
<title>intel_repack&#45;&gt;foamalgo</title>
<path fill="none" stroke="black" d="M871.71,-431.9C882.72,-413.71 901.05,-384.27 918.53,-360 964.6,-296.06 1024.13,-225.05 1055.67,-188.23"/>
<polygon fill="black" stroke="black" points="1058.21,-190.65 1062.08,-180.78 1052.9,-186.09 1058.21,-190.65"/>
</g>
<!-- heyoka -->
<g id="node29" class="node">
<title>heyoka</title>
<g id="a_node29"><a xlink:href="https://github.com/conda-forge/heyoka-feedstock" xlink:title="heyoka">
<ellipse fill="#fde725" stroke="black" cx="1088.53" cy="-378" rx="46.47" ry="18"/>
<text xml:space="preserve" text-anchor="middle" x="1088.53" y="-373.32" font-family="Times,serif" font-size="14.00">heyoka</text>
</a>
</g>
</g>
<!-- intel_repack&#45;&gt;heyoka -->
<g id="edge36" class="edge">
<title>intel_repack&#45;&gt;heyoka</title>
<path fill="none" stroke="black" d="M905.84,-435.34C945.11,-423.23 1002.26,-405.6 1042.14,-393.3"/>
<polygon fill="black" stroke="black" points="1042.94,-396.72 1051.46,-390.43 1040.87,-390.03 1042.94,-396.72"/>
</g>
<!-- tomviz -->
<g id="node30" class="node">
<title>tomviz</title>
<g id="a_node30"><a xlink:href="https://github.com/conda-forge/tomviz-feedstock" xlink:title="tomviz">
<ellipse fill="#fde725" stroke="black" cx="184.53" cy="-90" rx="44.9" ry="18"/>
<text xml:space="preserve" text-anchor="middle" x="184.53" y="-85.33" font-family="Times,serif" font-size="14.00">tomviz</text>
</a>
</g>
</g>
<!-- intel_repack&#45;&gt;tomviz -->
<g id="edge37" class="edge">
<title>intel_repack&#45;&gt;tomviz</title>
<path fill="none" stroke="black" d="M789.08,-448.97C614.43,-446.93 184.53,-429.49 184.53,-307 184.53,-307 184.53,-307 184.53,-233 184.53,-193.74 184.53,-148.38 184.53,-119.69"/>
<polygon fill="black" stroke="black" points="188.03,-120 184.53,-110 181.03,-120 188.03,-120"/>
</g>
<!-- scipoptsuite -->
<g id="node31" class="node">
<title>scipoptsuite</title>
<g id="a_node31"><a xlink:href="https://github.com/conda-forge/scipoptsuite-feedstock" xlink:title="scipoptsuite">
<ellipse fill="#fde725" stroke="black" cx="612.53" cy="-378" rx="72.25" ry="18"/>
<text xml:space="preserve" text-anchor="middle" x="612.53" y="-373.32" font-family="Times,serif" font-size="14.00">scipoptsuite</text>
</a>
</g>
</g>
<!-- intel_repack&#45;&gt;scipoptsuite -->
<g id="edge38" class="edge">
<title>intel_repack&#45;&gt;scipoptsuite</title>
<path fill="none" stroke="black" d="M814.99,-435.92C773.98,-424.39 714.1,-407.55 670.09,-395.18"/>
<polygon fill="black" stroke="black" points="671.3,-391.89 660.72,-392.55 669.4,-398.62 671.3,-391.89"/>
</g>
<!-- python&#45;mint -->
<g id="node32" class="node">
<title>python&#45;mint</title>
<g id="a_node32"><a xlink:href="https://github.com/conda-forge/python-mint-feedstock" xlink:title="python mint">
<ellipse fill="#fde725" stroke="black" cx="284.53" cy="-306" rx="72.25" ry="18"/>
<text xml:space="preserve" text-anchor="middle" x="284.53" y="-301.32" font-family="Times,serif" font-size="14.00">python mint</text>
</a>
</g>
</g>
<!-- intel_repack&#45;&gt;python&#45;mint -->
<g id="edge39" class="edge">
<title>intel_repack&#45;&gt;python&#45;mint</title>
<path fill="none" stroke="black" d="M789.92,-447.22C671.95,-443.3 442.63,-431.28 370.53,-396 341.87,-381.98 317.53,-354.28 302.13,-333.49"/>
<polygon fill="black" stroke="black" points="305.05,-331.55 296.39,-325.44 299.35,-335.62 305.05,-331.55"/>
</g>
<!-- cadet -->
<g id="node33" class="node">
<title>cadet</title>
<g id="a_node33"><a xlink:href="https://github.com/conda-forge/cadet-feedstock" xlink:title="cadet">
<ellipse fill="#fde725" stroke="black" cx="355.53" cy="-234" rx="38.58" ry="18"/>
<text xml:space="preserve" text-anchor="middle" x="355.53" y="-229.32" font-family="Times,serif" font-size="14.00">cadet</text>
</a>
</g>
</g>
<!-- intel_repack&#45;&gt;cadet -->
<g id="edge40" class="edge">
<title>intel_repack&#45;&gt;cadet</title>
<path fill="none" stroke="black" d="M788.96,-449.72C676,-449.35 465.19,-442.26 408.53,-396 387.83,-379.11 369.83,-305.18 361.12,-263.63"/>
<polygon fill="black" stroke="black" points="364.55,-262.93 359.12,-253.84 357.69,-264.33 364.55,-262.93"/>
</g>
<!-- vmtk -->
<g id="node34" class="node">
<title>vmtk</title>
<g id="a_node34"><a xlink:href="https://github.com/conda-forge/vmtk-feedstock" xlink:title="vmtk">
<ellipse fill="#fde725" stroke="black" cx="422.53" cy="-162" rx="36.48" ry="18"/>
<text xml:space="preserve" text-anchor="middle" x="422.53" y="-157.32" font-family="Times,serif" font-size="14.00">vmtk</text>
</a>
</g>
</g>
<!-- intel_repack&#45;&gt;vmtk -->
<g id="edge41" class="edge">
<title>intel_repack&#45;&gt;vmtk</title>
<path fill="none" stroke="black" d="M789.34,-447.92C720.41,-444.51 614.96,-432.96 531.53,-396 484.69,-375.25 466.39,-368.79 441.53,-324 418.41,-282.36 417.56,-225.42 419.63,-191.6"/>
<polygon fill="black" stroke="black" points="423.11,-192.01 420.38,-181.77 416.13,-191.48 423.11,-192.01"/>
</g>
<!-- cascade -->
<g id="node35" class="node">
<title>cascade</title>
<g id="a_node35"><a xlink:href="https://github.com/conda-forge/cascade-feedstock" xlink:title="cascade">
<ellipse fill="#fde725" stroke="black" cx="1178.53" cy="-234" rx="50.68" ry="18"/>
<text xml:space="preserve" text-anchor="middle" x="1178.53" y="-229.32" font-family="Times,serif" font-size="14.00">cascade</text>
</a>
</g>
</g>
<!-- intel_repack&#45;&gt;cascade -->
<g id="edge42" class="edge">
<title>intel_repack&#45;&gt;cascade</title>
<path fill="none" stroke="black" d="M931.58,-445.26C1046.2,-438.41 1263.46,-422.13 1286.53,-396 1326.8,-350.4 1256.37,-288.94 1211.49,-256.74"/>
<polygon fill="black" stroke="black" points="1213.51,-253.88 1203.31,-251.01 1209.49,-259.62 1213.51,-253.88"/>
</g>
<!-- openvino -->
<g id="node36" class="node">
<title>openvino</title>
<g id="a_node36"><a xlink:href="https://github.com/conda-forge/openvino-feedstock" xlink:title="openvino">
<ellipse fill="#fde725" stroke="black" cx="750.53" cy="-90" rx="56.47" ry="18"/>
<text xml:space="preserve" text-anchor="middle" x="750.53" y="-85.33" font-family="Times,serif" font-size="14.00">openvino</text>
</a>
</g>
</g>
<!-- intel_repack&#45;&gt;openvino -->
<g id="edge43" class="edge">
<title>intel_repack&#45;&gt;openvino</title>
<path fill="none" stroke="black" d="M836.62,-432.8C803.89,-409.33 750.53,-362.54 750.53,-307 750.53,-307 750.53,-307 750.53,-233 750.53,-193.74 750.53,-148.38 750.53,-119.69"/>
<polygon fill="black" stroke="black" points="754.03,-120 750.53,-110 747.03,-120 754.03,-120"/>
</g>
<!-- open3d -->
<g id="node37" class="node">
<title>open3d</title>
<g id="a_node37"><a xlink:href="https://github.com/conda-forge/open3d-feedstock" xlink:title="open3d">
<ellipse fill="#fde725" stroke="black" cx="975.53" cy="-378" rx="48.05" ry="18"/>
<text xml:space="preserve" text-anchor="middle" x="975.53" y="-373.32" font-family="Times,serif" font-size="14.00">open3d</text>
</a>
</g>
</g>
<!-- intel_repack&#45;&gt;open3d -->
<g id="edge44" class="edge">
<title>intel_repack&#45;&gt;open3d</title>
<path fill="none" stroke="black" d="M887.68,-432.94C903.73,-423.09 924.44,-410.37 941.72,-399.76"/>
<polygon fill="black" stroke="black" points="943.46,-402.8 950.15,-394.58 939.8,-396.83 943.46,-402.8"/>
</g>
<!-- momentum -->
<g id="node38" class="node">
<title>momentum</title>
<g id="a_node38"><a xlink:href="https://github.com/conda-forge/momentum-feedstock" xlink:title="momentum">
<ellipse fill="#fde725" stroke="black" cx="1439.53" cy="-378" rx="68.04" ry="18"/>
<text xml:space="preserve" text-anchor="middle" x="1439.53" y="-373.32" font-family="Times,serif" font-size="14.00">momentum</text>
</a>
</g>
</g>
<!-- intel_repack&#45;&gt;momentum -->
<g id="edge45" class="edge">
<title>intel_repack&#45;&gt;momentum</title>
<path fill="none" stroke="black" d="M930,-443.82C1025.94,-436.07 1205.67,-419.8 1357.53,-396 1364.22,-394.95 1371.2,-393.72 1378.12,-392.41"/>
<polygon fill="black" stroke="black" points="1378.3,-395.94 1387.45,-390.59 1376.96,-389.07 1378.3,-395.94"/>
</g>
<!-- ospray -->
<g id="node39" class="node">
<title>ospray</title>
<g id="a_node39"><a xlink:href="https://github.com/conda-forge/ospray-feedstock" xlink:title="ospray">
<ellipse fill="#fde725" stroke="black" cx="823.53" cy="-306" rx="44.9" ry="18"/>
<text xml:space="preserve" text-anchor="middle" x="823.53" y="-301.32" font-family="Times,serif" font-size="14.00">ospray</text>
</a>
</g>
</g>
<!-- intel_repack&#45;&gt;ospray -->
<g id="edge46" class="edge">
<title>intel_repack&#45;&gt;ospray</title>
<path fill="none" stroke="black" d="M856.87,-431.59C850.43,-407.5 838.72,-363.75 831.03,-335.03"/>
<polygon fill="black" stroke="black" points="834.47,-334.33 828.5,-325.57 827.7,-336.14 834.47,-334.33"/>
</g>
<!-- heyoka&#45;&gt;cascade -->
<g id="edge47" class="edge">
<title>heyoka&#45;&gt;cascade</title>
<path fill="none" stroke="black" d="M1088.69,-359.58C1089.64,-340.58 1093.46,-309.95 1107.53,-288 1115.93,-274.89 1128.78,-263.87 1141.26,-255.32"/>
<polygon fill="black" stroke="black" points="1142.86,-258.46 1149.37,-250.1 1139.07,-252.57 1142.86,-258.46"/>
</g>
<!-- heyoka.py -->
<g id="node40" class="node">
<title>heyoka.py</title>
<g id="a_node40"><a xlink:href="https://github.com/conda-forge/heyoka.py-feedstock" xlink:title="heyoka py">
<ellipse fill="#fde725" stroke="black" cx="1178.53" cy="-306" rx="61.73" ry="18"/>
<text xml:space="preserve" text-anchor="middle" x="1178.53" y="-301.32" font-family="Times,serif" font-size="14.00">heyoka py</text>
</a>
</g>
</g>
<!-- heyoka&#45;&gt;heyoka.py -->
<g id="edge48" class="edge">
<title>heyoka&#45;&gt;heyoka.py</title>
<path fill="none" stroke="black" d="M1108.5,-361.46C1120.37,-352.24 1135.64,-340.36 1148.89,-330.05"/>
<polygon fill="black" stroke="black" points="1150.73,-333.05 1156.48,-324.15 1146.44,-327.53 1150.73,-333.05"/>
</g>
<!-- openvino&#45;tokenizers -->
<g id="node41" class="node">
<title>openvino&#45;tokenizers</title>
<g id="a_node41"><a xlink:href="https://github.com/conda-forge/openvino-tokenizers-feedstock" xlink:title="openvino tokenizers">
<ellipse fill="#fde725" stroke="black" cx="750.53" cy="-18" rx="111.71" ry="18"/>
<text xml:space="preserve" text-anchor="middle" x="750.53" y="-13.32" font-family="Times,serif" font-size="14.00">openvino tokenizers</text>
</a>
</g>
</g>
<!-- openvino&#45;&gt;openvino&#45;tokenizers -->
<g id="edge49" class="edge">
<title>openvino&#45;&gt;openvino&#45;tokenizers</title>
<path fill="none" stroke="black" d="M750.53,-71.7C750.53,-64.41 750.53,-55.73 750.53,-47.54"/>
<polygon fill="black" stroke="black" points="754.03,-47.62 750.53,-37.62 747.03,-47.62 754.03,-47.62"/>
</g>
<!-- heyoka.py&#45;&gt;cascade -->
<g id="edge50" class="edge">
<title>heyoka.py&#45;&gt;cascade</title>
<path fill="none" stroke="black" d="M1178.53,-287.7C1178.53,-280.41 1178.53,-271.73 1178.53,-263.54"/>
<polygon fill="black" stroke="black" points="1182.03,-263.62 1178.53,-253.62 1175.03,-263.62 1182.03,-263.62"/>
</g>
<!-- kegalign -->
<g id="node44" class="node">
<title>kegalign</title>
<g id="a_node44"><a xlink:href="https://github.com/conda-forge/kegalign-feedstock/pull/14" xlink:title="kegalign ✓">
<ellipse fill="#31688e" stroke="black" cx="2644.53" cy="-18" rx="61.73" ry="18"/>
<text xml:space="preserve" text-anchor="middle" x="2644.53" y="-13.32" font-family="Times,serif" font-size="14.00" fill="white">kegalign ✓</text>
</a>
</g>
</g>
<!-- mold&#45;&gt;kegalign -->
<!-- intel&#45;compiler&#45;repack -->
<g id="node43" class="node">
<title>intel&#45;compiler&#45;repack</title>
<g id="a_node43"><a xlink:href="https://github.com/conda-forge/intel-compiler-repack-feedstock/pull/83" xlink:title="intel compiler repack ✓">
<ellipse fill="#31688e" stroke="black" cx="861.53" cy="-522" rx="125.39" ry="18"/>
<text xml:space="preserve" text-anchor="middle" x="861.53" y="-517.33" font-family="Times,serif" font-size="14.00" fill="white">intel compiler repack ✓</text>
</a>
</g>
</g>
<!-- intel&#45;compiler&#45;repack&#45;&gt;intel_repack -->
<g id="edge52" class="edge">
<title>intel&#45;compiler&#45;repack&#45;&gt;intel_repack</title>
<path fill="none" stroke="black" d="M861.53,-503.7C861.53,-496.41 861.53,-487.73 861.53,-479.54"/>
<polygon fill="black" stroke="black" points="865.03,-479.62 861.53,-469.62 858.03,-479.62 865.03,-479.62"/>
</g>
<!-- openusd -->
<g id="node45" class="node">
<title>openusd</title>
<g id="a_node45"><a xlink:href="https://github.com/conda-forge/openusd-feedstock/pull/31" xlink:title="openusd ❎">
<ellipse fill="#31688e" stroke="black" cx="1439.53" cy="-450" rx="68.57" ry="18"/>
<text xml:space="preserve" text-anchor="middle" x="1439.53" y="-445.32" font-family="Times,serif" font-size="14.00" fill="white">openusd ❎</text>
</a>
</g>
</g>
<!-- openusd&#45;&gt;momentum -->
<g id="edge54" class="edge">
<title>openusd&#45;&gt;momentum</title>
<path fill="none" stroke="black" d="M1439.53,-431.7C1439.53,-424.41 1439.53,-415.73 1439.53,-407.54"/>
<polygon fill="black" stroke="black" points="1443.03,-407.62 1439.53,-397.62 1436.03,-407.62 1443.03,-407.62"/>
</g>
<!-- gtsam&#45;points -->
<g id="node46" class="node">
<title>gtsam&#45;points</title>
<g id="a_node46"><a xlink:href="https://github.com/conda-forge/gtsam-points-feedstock/pull/11" xlink:title="gtsam points ❎">
<ellipse fill="#31688e" stroke="black" cx="2846.53" cy="-306" rx="91.72" ry="18"/>
<text xml:space="preserve" text-anchor="middle" x="2846.53" y="-301.32" font-family="Times,serif" font-size="14.00" fill="white">gtsam points ❎</text>
</a>
</g>
</g>
<!-- glim -->
<g id="node47" class="node">
<title>glim</title>
<g id="a_node47"><a xlink:href="https://github.com/conda-forge/glim-feedstock" xlink:title="glim">
<ellipse fill="#fde725" stroke="black" cx="2846.53" cy="-234" rx="33.32" ry="18"/>
<text xml:space="preserve" text-anchor="middle" x="2846.53" y="-229.32" font-family="Times,serif" font-size="14.00">glim</text>
</a>
</g>
</g>
<!-- gtsam&#45;points&#45;&gt;glim -->
<g id="edge55" class="edge">
<title>gtsam&#45;points&#45;&gt;glim</title>
<path fill="none" stroke="black" d="M2846.53,-287.7C2846.53,-280.41 2846.53,-271.73 2846.53,-263.54"/>
<polygon fill="black" stroke="black" points="2850.03,-263.62 2846.53,-253.62 2843.03,-263.62 2850.03,-263.62"/>
</g>
</g>
</svg>
